<svg id="icons" xmlns="http://www.w3.org/2000/svg" viewBox="0 0 128 128"><defs><style>.cls-1{fill:#ff5987;}.cls-2{fill:#ffe2b6;}.cls-3{fill:#fff;}.cls-4{fill:none;stroke:#141a3a;stroke-linecap:round;stroke-linejoin:round;stroke-width:4px;}</style></defs><title>fridge</title><g id="_Group_" data-name="&lt;Group&gt;"><path class="cls-1" d="M95,104v8a2,2,0,0,1-2,2H35a2,2,0,0,1-2-2V50H95Z"/><path class="cls-2" d="M95,12V50H33V12a2,2,0,0,1,2-2H93A2,2,0,0,1,95,12Z"/><path class="cls-3" d="M39,112V12a2,2,0,0,1,2-2H35a2,2,0,0,0-2,2V112a2,2,0,0,0,2,2h6A2,2,0,0,1,39,112Z"/><path class="cls-4" d="M95,50v62a2,2,0,0,1-2,2H35a2,2,0,0,1-2-2V12a2,2,0,0,1,2-2H93a2,2,0,0,1,2,2Z"/><line class="cls-4" x1="41" y1="118" x2="41" y2="114"/><line class="cls-4" x1="87" y1="118" x2="87" y2="114"/><line class="cls-4" x1="33" y1="50" x2="95" y2="50"/><line class="cls-4" x1="43" y1="60" x2="51" y2="60"/><line class="cls-4" x1="43" y1="40" x2="51" y2="40"/></g></svg>